<?xml version="1.0" encoding="UTF-8"?>
<svg version="1.1" xmlns="http://www.w3.org/2000/svg" width="640" height="640">
<path d="M0 0 C2.28591784 1.49767031 3.00409519 3.00707351 4.375 5.375 C5.94631891 8.13718502 5.94631891 8.13718502 8.5 10.5 C11 13 11 13 12.375 15.375 C13.91405285 17.86116229 15.41270296 19.48257065 17.5 21.5 C20.2443941 24.15253153 22.08302585 26.68886283 24 30 C24.825 30.825 25.65 31.65 26.5 32.5 C29 35 29 35 30.375 37.375 C31.91405285 39.86116229 33.41270296 41.48257065 35.5 43.5 C38.2348721 46.15460332 40.18211998 48.6239371 42 52 C44.99464226 56.91976942 48.34940936 61.53210267 53 65 C56.25696104 65.67166707 56.25696104 65.67166707 59 65 C59.33 64.67 59.66 64.34 60 64 C61.51928038 63.92820036 63.04167482 63.91607993 64.5625 63.9375 C65.38878906 63.94652344 66.21507812 63.95554688 67.06640625 63.96484375 C67.70449219 63.97644531 68.34257812 63.98804688 69 64 C69.4375 67.0625 69.4375 67.0625 69 71 C67.40571836 73.02713768 65.65590907 74.6533622 63.73828125 76.375 C61.63454155 78.34164206 60.43662594 80.51855519 59 83 C57.33333333 84.66666667 55.66666667 86.33333333 54 88 C53.319375 89.175625 53.319375 89.175625 52.625 90.375 C50.33342128 94.07678101 47.30137849 96.74136169 44.15625 99.71875 C41.9353886 101.90451457 41.9353886 101.90451457 40.5 104.5 C38.2940007 108.17666551 35.25181578 110.78828106 32.15625 113.71875 C29.99114256 116.00937092 28.57290675 118.28316107 27 121 C25.33333333 122.66666667 23.66666667 124.33333333 22 126 C21.54625 126.78375 21.0925 127.5675 20.625 128.375 C18.33342128 132.07678101 15.30137849 134.74136169 12.15625 137.71875 C9.99114256 140.00937092 8.57290675 142.28316107 7 145 C5.33333333 146.66666667 3.66666667 148.33333333 2 150 C1.54625 150.78375 1.0925 151.5675 0.625 152.375 C-1.66657872 156.07678101 -4.69862151 158.74136169 -7.84375 161.71875 C-10.01152486 164.01219297 -11.40346425 166.29283069 -13 169 C-14.68908442 170.81192692 -16.46787724 172.47013147 -18.28125 174.15625 C-20.10819049 175.98312296 -20.10819049 175.98312296 -21.4375 178.4375 C-23.68699712 182.12667527 -26.7231871 184.76461712 -29.84375 187.71875 C-32.05820983 189.89211197 -32.05820983 189.89211197 -33.4375 192.4375 C-35.70819668 196.16144256 -38.83194045 198.92043168 -41.97265625 201.89453125 C-44.89240076 204.71880727 -47.03073473 207.45532252 -49 211 C-50 212 -51 213 -52 214 C-52.4125 214.7425 -52.825 215.485 -53.25 216.25 C-55.64370636 220.01153856 -58.76077133 222.8530381 -61.97265625 225.89453125 C-64.90822338 228.73411254 -66.93700859 231.50188413 -69 235 C-71.20410687 237.33188118 -73.51397942 239.51323385 -75.84375 241.71875 C-78.0061345 244.00649012 -79.44709287 246.27552093 -81 249 C-81.53625 249.515625 -82.0725 250.03125 -82.625 250.5625 C-84.39458752 252.17494888 -84.39458752 252.17494888 -85 256 C-61.24 256 -37.48 256 -13 256 C-13 264.02702703 -13 264.02702703 -17 269 C-17.886875 269.86625 -18.77375 270.7325 -19.6875 271.625 C-21.90949215 273.90704599 -22.65631094 274.90679843 -23 278 C-23.66 278 -24.32 278 -25 278 C-25 278.66 -25 279.32 -25 280 C-25.66 280 -26.32 280 -27 280 C-26.855625 280.680625 -26.71125 281.36125 -26.5625 282.0625 C-27.16947077 286.13787518 -29.3064535 287.56885033 -32.25390625 290.296875 C-34.31984843 292.31197744 -35.60397365 294.48715258 -37 297 C-37.48339844 297.44214844 -37.96679688 297.88429688 -38.46484375 298.33984375 C-40.34620284 300.37439239 -40.93179313 302.19450834 -41.8125 304.8125 C-43.72706552 309.87873491 -46.03653928 312.37385509 -50 316 C-51.6446674 318.46326712 -51.6446674 318.46326712 -53 321 C-56.5896616 326.60884626 -56.5896616 326.60884626 -58.50390625 328.43359375 C-60.16376072 330.17145704 -60.95969952 331.75108776 -61.9375 333.9375 C-63.54011234 337.28952887 -65.27168534 339.44770564 -68 342 C-69.03357147 343.64605826 -70.04060332 345.30963442 -71 347 C-76.72382614 352.72382614 -93.19888144 352.19060405 -101.25 352.875 C-101.99034988 352.93834534 -102.73069977 353.00169067 -103.4934845 353.06695557 C-124.58417657 354.64420908 -140.05405944 349.79691236 -156.22174072 336.02835083 C-165.51043522 327.78766373 -174.20987336 319.00674 -182.75 310 C-183.61260941 309.09558922 -184.47521881 308.19117844 -185.3639679 307.25936127 C-191.18860941 301.13363836 -196.91083887 294.92458736 -202.546875 288.625 C-203.29381119 287.79326389 -204.04074738 286.96152779 -204.81031799 286.10458755 C-206.90372929 283.75016628 -208.96307773 281.37079774 -211.01074219 278.9765625 C-211.62406528 278.28534239 -212.23738838 277.59412228 -212.86929703 276.8819561 C-215.65738524 273.53855552 -217.36444792 271.14759314 -217.48760986 266.70849609 C-216.78304523 261.34995972 -214.13107862 257.44256552 -210 254 C-208.9790625 253.5978125 -208.9790625 253.5978125 -207.9375 253.1875 C-205.72657874 252.11831947 -205.72657874 252.11831947 -205.125 249.375 C-203.17378887 243.5213666 -199.19996167 239.06866606 -194.8125 234.8125 C-192.28256893 232.28256893 -190.7461778 230.07659898 -189 227 C-188 226 -187 225 -186 224 C-185.566875 223.236875 -185.13375 222.47375 -184.6875 221.6875 C-182.35513083 217.97298614 -179.32556539 215.28153524 -176.15625 212.28125 C-173.99382172 209.99346356 -172.54809813 207.72760146 -171 205 C-170 204 -169 203 -168 202 C-167.505 201.175 -167.01 200.35 -166.5 199.5 C-165.14190062 197.23650104 -163.84048077 195.84048077 -162 194 C-161.319375 192.824375 -161.319375 192.824375 -160.625 191.625 C-158.76579002 188.6216608 -156.49229819 186.49229819 -154 184 C-153.319375 182.824375 -153.319375 182.824375 -152.625 181.625 C-150.33342128 177.92321899 -147.30137849 175.25863831 -144.15625 172.28125 C-141.98507679 169.98421168 -140.52643283 167.75655811 -139 165 C-136.30932471 160.57960488 -133.28754312 157.22469665 -129.59765625 153.66015625 C-127.65296818 151.63939237 -126.40115377 149.42017469 -125 147 C-123.33333333 145.33333333 -121.66666667 143.66666667 -120 142 C-118.97695052 140.34738161 -117.97383946 138.68208635 -117 137 C-116 136 -115 135 -114 134 C-112.97388051 132.34928604 -111.97691857 130.68029994 -111 129 C-108.30932471 124.57960488 -105.28754312 121.22469665 -101.59765625 117.66015625 C-99.65296818 115.63939237 -98.40115377 113.42017469 -97 111 C-95.33333333 109.33333333 -93.66666667 107.66666667 -92 106 C-91.319375 104.824375 -91.319375 104.824375 -90.625 103.625 C-88.00130079 99.38671666 -84.40465588 95.1181434 -79.82421875 92.98828125 C-79.22222656 92.66214844 -78.62023437 92.33601563 -78 92 C-77.18415432 88.94091587 -77.18415432 88.94091587 -77 86 C-76.34 86 -75.68 86 -75 86 C-75 85.34 -75 84.68 -75 84 C-74.34 84 -73.68 84 -73 84 C-72.89429688 83.40058594 -72.78859375 82.80117187 -72.6796875 82.18359375 C-71.9036036 79.69031271 -71.04690746 78.78839202 -69.125 77.0625 C-66.49664445 74.57773632 -64.84207113 72.12351192 -63 69 C-61.33333333 67.33333333 -59.66666667 65.66666667 -58 64 C-56.95107762 62.36368108 -55.95093297 60.69514137 -55 59 C-52.36167791 54.77868466 -49.50892991 51.50892991 -46 48 C-45.2575 46.7625 -45.2575 46.7625 -44.5 45.5 C-42.7141515 42.52358584 -40.44892737 40.44892737 -38 38 C-37.2575 36.7625 -37.2575 36.7625 -36.5 35.5 C-34.7141515 32.52358584 -32.44892737 30.44892737 -30 28 C-28.97695052 26.34738161 -27.97383946 24.68208635 -27 23 C-26 22 -25 21 -24 20 C-23.5875 19.2575 -23.175 18.515 -22.75 17.75 C-20.73343202 14.58110746 -18.32903986 12.30117298 -15.640625 9.703125 C-13.67697923 7.66467367 -12.37040277 5.46672499 -11 3 C-8.36148253 -1.02721088 -4.38807923 -0.67155091 0 0 Z " fill="#FEFEFE" transform="translate(328,65)"/>
<path d="M0 0 C7.2212583 2.21058928 11.88977961 9.77917577 16.28515625 15.58984375 C18.14969305 18.05267147 20.06620275 20.466235 22 22.875 C22.66902344 23.70902344 23.33804688 24.54304688 24.02734375 25.40234375 C24.69894531 26.23894531 25.37054688 27.07554687 26.0625 27.9375 C28.06653728 30.44156997 30.06960091 32.94639686 32.0703125 35.453125 C33.36996289 37.07386548 34.67694357 38.68876299 35.9921875 40.296875 C39.88004159 45.07471979 43.52649634 49.96047227 47.0625 55 C50.46833535 59.84664138 54.04505182 64.3113111 58.0703125 68.66796875 C60.37804236 71.29697081 62.42944448 74.0557488 64.5 76.875 C67.28064179 80.6456829 70.12202349 84.19538357 73.3125 87.625 C81.43184763 96.44110426 88.45866675 106.27028684 95.4375 116 C98.13693901 119.74890906 100.992048 123.21514481 104.08203125 126.64453125 C107.19337873 130.24682113 110.08081176 134.02235662 112.99291992 137.78637695 C115.60080505 141.13988982 118.28406256 144.33094142 121.1875 147.4375 C123.12330941 149.65522341 124.18967054 151.21496299 125.4375 153.9375 C124.82148265 158.86563883 121.43968236 161.49512107 118.0625 164.9375 C116.92869443 166.2214442 115.80353474 167.51307927 114.6875 168.8125 C111.2510069 172.74212216 107.7545186 176.61617769 104.2578125 180.4921875 C101.15851063 183.94443478 98.1084394 187.43821148 95.0625 190.9375 C93.34305661 192.90367967 91.62263022 194.86897274 89.89990234 196.83227539 C88.76145734 198.13666169 87.62890092 199.44624446 86.50585938 200.76391602 C81.24462431 206.89800861 75.52482928 212.5085238 69.734375 218.13867188 C65.26658671 222.54187479 61.27361815 227.02403593 57.5703125 232.09204102 C56.0625 233.9375 56.0625 233.9375 53.0625 235.9375 C50.2376194 236.17965984 50.2376194 236.17965984 46.73086548 236.16886902 C46.08566716 236.16972246 45.44046883 236.1705759 44.77571905 236.1714552 C42.60898658 236.17207017 40.44256742 236.15854236 38.27587891 236.14526367 C36.72332358 236.14310246 35.17076664 236.14191584 33.61820984 236.14163208 C30.2689868 236.13957396 26.91983985 236.13186008 23.57063675 236.1201992 C18.25500796 236.1030217 12.939515 236.10629817 7.62387085 236.11384583 C-7.49464095 236.13301197 -22.61298152 236.14003838 -37.73144531 236.09204102 C-46.07754005 236.06571254 -54.42324804 236.06475785 -62.76934683 236.09118825 C-67.17730879 236.10407204 -71.58443253 236.10448692 -75.99232101 236.0733242 C-94.05930274 235.95191215 -110.25157047 236.00770826 -127.15498734 243.29465675 C-129.46919947 244.12925146 -131.5037915 244.20380767 -133.9375 243.9375 C-133.48538093 239.2153675 -131.74090171 237.35695898 -128.3125 234.1875 C-125.12854857 231.13827148 -122.22663773 228.18341131 -119.625 224.625 C-116.56252735 220.51503077 -113.09232836 217.01052688 -109.4375 213.4375 C-105.10250015 209.19485131 -101.16038961 204.93653239 -97.54296875 200.05078125 C-94.57682857 196.14644587 -91.22265791 192.57324789 -87.9375 188.9375 C-83.31433528 183.78764563 -79.04141851 178.50785725 -74.9375 172.9375 C-70.71064225 167.20616745 -66.22891218 162.15346861 -61.125 157.1875 C-59.03368021 155.03642821 -57.23595151 152.83543535 -55.4375 150.4375 C-52.33375331 146.29917107 -48.83488081 142.79698573 -45.1328125 139.1953125 C-42.35144519 136.33476036 -40.00950984 133.24077578 -37.6171875 130.0546875 C-36.00101378 128.01755691 -34.30747004 126.24098222 -32.4375 124.4375 C-27.04253859 119.21264999 -22.79373285 113.36455475 -18.9375 106.9375 C-52.1025 106.4425 -52.1025 106.4425 -85.9375 105.9375 C-84.81792204 100.3396102 -84.81792204 100.3396102 -81.9375 97.3125 C-75.80002157 90.62277402 -70.09872444 83.63230957 -64.8125 76.25 C-61.9797889 72.29984862 -59.009078 68.61991804 -55.765625 65.00390625 C-46.47257494 54.49958257 -37.82219355 43.28560673 -29.25 32.1875 C-25.96367562 27.93366893 -22.55101582 23.7888175 -19.1328125 19.640625 C-17.14260669 17.1900513 -15.22010903 14.70246438 -13.3125 12.1875 C-5.06527565 1.61657734 -5.06527565 1.61657734 0 0 Z " fill="#FFFFFF" transform="translate(409.9375,176.0625)"/>
<path d="M0 0 C1.13501953 -0.02126953 1.13501953 -0.02126953 2.29296875 -0.04296875 C5.34171563 0.23590887 7.94657626 1.13818205 10.8125 2.1875 C10.67223717 4.50034456 10.52514442 6.81277591 10.375 9.125 C10.25318359 11.05666016 10.25318359 11.05666016 10.12890625 13.02734375 C9.8125 16.1875 9.8125 16.1875 8.8125 17.1875 C8.60550437 18.68246842 8.44570741 20.1841592 8.3125 21.6875 C7.92361111 26.07638889 7.92361111 26.07638889 6.8125 27.1875 C6.78605443 28.58323828 6.76636725 29.97910715 6.75 31.375 C6.3133516 35.21182392 5.57617148 37.02483311 2.55908203 39.46459961 C-3.05863947 43.33945282 -8.46637336 42.83299453 -15.0703125 42.56640625 C-16.44166645 42.53633689 -17.81310852 42.51010374 -19.18460083 42.48719788 C-22.34902472 42.43285697 -25.51284346 42.36519826 -28.67687988 42.29180908 C-45.9429229 41.92860338 -63.22573384 42.07271412 -80.4945488 42.11224937 C-86.9674019 42.12593565 -93.43935162 42.12192641 -99.91210938 42.08129883 C-106.2712643 42.0420694 -112.62902803 42.04660566 -118.98819351 42.08142281 C-121.38586055 42.0869865 -123.78361939 42.07704356 -126.18114853 42.05073357 C-140.90223294 41.33114664 -140.90223294 41.33114664 -153.53564453 47.56860352 C-155.55930279 49.88980223 -155.55930279 49.88980223 -157.1875 52.1875 C-159.50785416 54.87507206 -159.84513956 55.13677993 -163.5625 55.6875 C-167.1875 55.1875 -167.1875 55.1875 -170.1875 52.9375 C-172.1875 50.1875 -172.1875 50.1875 -172.03515625 48.28125 C-170.97731572 45.66833515 -169.52648213 44.01184414 -167.625 41.9375 C-166.66400391 40.87789062 -166.66400391 40.87789062 -165.68359375 39.796875 C-165.18988281 39.26578125 -164.69617188 38.7346875 -164.1875 38.1875 C-164.78175781 37.9090625 -165.37601562 37.630625 -165.98828125 37.34375 C-169.60072113 35.44449209 -173.33638441 32.88973118 -175.1875 29.1875 C-175.79950898 23.69948508 -175.81560895 18.74951318 -172.66796875 13.98828125 C-164.90573204 4.54661602 -164.90573204 4.54661602 -160.1875 2.1875 C-146.71226415 0.97818396 -146.71226415 0.97818396 -142.4375 4.3125 C-137.71918847 10.34145362 -137.45071831 16.74383793 -138.1875 24.1875 C-138.82670991 25.86488872 -139.49008048 27.53346607 -140.1875 29.1875 C-130.05203571 29.08010234 -119.9166442 28.96749022 -109.78131294 28.84816074 C-105.07542415 28.79292059 -100.36952915 28.73949884 -95.66357422 28.69018555 C-91.12481031 28.64255812 -86.58612333 28.5902159 -82.04745102 28.53455925 C-80.31306745 28.51412834 -78.57866278 28.49541649 -76.8442421 28.47842598 C-74.42098588 28.45439824 -71.99787572 28.42434154 -69.57470703 28.39282227 C-68.85253998 28.3870668 -68.13037292 28.38131134 -67.38632202 28.37538147 C-63.66204442 28.37126626 -63.66204442 28.37126626 -60.1875 27.1875 C-56.74652217 26.92309189 -53.31201499 26.74290087 -49.86523438 26.58203125 C-46.22260546 26.72110713 -46.22260546 26.72110713 -43.1875 25.1875 C-43.0225 24.0325 -42.8575 22.8775 -42.6875 21.6875 C-42.1875 18.1875 -42.1875 18.1875 -41.1875 17.1875 C-41.00225208 15.81725346 -40.8644414 14.4404679 -40.75 13.0625 C-40.33586578 8.88775983 -39.46126969 5.17864502 -38.1875 1.1875 C-32.40942976 0.9516604 -27.67425196 1.31966954 -22.1875 3.1875 C-22.80225286 12.00602381 -24.49846786 20.52203075 -26.1875 29.1875 C-18.2675 27.7025 -18.2675 27.7025 -10.1875 26.1875 C-9.73375 23.91875 -9.28 21.65 -8.8125 19.3125 C-8.58965332 18.20261719 -8.58965332 18.20261719 -8.36230469 17.0703125 C-7.75583049 14.04891131 -7.156795 11.02688925 -6.578125 8 C-6.40796875 7.113125 -6.2378125 6.22625 -6.0625 5.3125 C-5.91554688 4.53132813 -5.76859375 3.75015625 -5.6171875 2.9453125 C-4.79548515 -0.41619711 -3.15546382 0.02642767 0 0 Z M-155.1875 14.1875 C-157.87026017 16.59510528 -159.8913277 18.41004772 -161.1875 21.8125 C-161.43346874 24.26292291 -161.43346874 24.26292291 -159.75 26 C-159.234375 26.391875 -158.71875 26.78375 -158.1875 27.1875 C-155.4431051 26.14652262 -154.2087861 25.21465813 -152.375 22.875 C-151.00020763 19.7636278 -151.18454099 18.37873321 -152.1875 15.1875 C-153.1775 14.8575 -154.1675 14.5275 -155.1875 14.1875 Z " fill="#FFFFFF" transform="translate(453.1875,497.8125)"/>
<path d="M0 0 C3.97818315 0.26086447 7.04507332 1.01981986 10.8125 2.25 C7.83314554 22.47157604 7.83314554 22.47157604 5.6875 28.3125 C4.4903332 32.33155997 4.67616852 36.09348743 4.8125 40.25 C7.58391717 40.33089542 10.35297819 40.39044062 13.125 40.4375 C13.91068359 40.46263672 14.69636719 40.48777344 15.50585938 40.51367188 C16.26318359 40.52333984 17.02050781 40.53300781 17.80078125 40.54296875 C18.49727783 40.5586792 19.19377441 40.57438965 19.91137695 40.59057617 C22.47855374 40.13067998 23.26668217 39.33514215 24.8125 37.25 C25.66053999 34.87019549 25.66053999 34.87019549 26.1640625 32.171875 C26.37546875 31.17542969 26.586875 30.17898438 26.8046875 29.15234375 C27.01351562 28.11207031 27.22234375 27.07179688 27.4375 26 C27.6540625 24.97519531 27.870625 23.95039062 28.09375 22.89453125 C29.60244134 15.65840055 30.99356075 8.67349057 30.8125 1.25 C33.1248449 0.09382755 34.55305727 0.08411296 37.125 0.0625 C37.88425781 0.04832031 38.64351562 0.03414063 39.42578125 0.01953125 C42.17263806 0.28477602 44.30461899 1.12700196 46.8125 2.25 C45.6645533 10.86816705 44.08610605 19.40328087 42.4375 27.9375 C42.1422644 29.52195923 42.1422644 29.52195923 41.84106445 31.13842773 C38.40765182 48.58922144 38.40765182 48.58922144 32.8125 53.25 C29.78758948 53.57295755 26.97300446 53.71802727 23.9453125 53.71875 C23.07357391 53.72636353 22.20183533 53.73397705 21.30368042 53.74182129 C19.45948144 53.75262597 17.61522124 53.75547389 15.77099609 53.75097656 C12.95435927 53.75000581 10.14046096 53.79158723 7.32421875 53.8359375 C5.53125567 53.84114582 3.73828314 53.84383267 1.9453125 53.84375 C1.10557892 53.86014526 0.26584534 53.87654053 -0.59933472 53.89343262 C-4.91752911 53.84261804 -6.68218019 53.63341039 -10.22949219 50.94189453 C-12.86117824 47.32381841 -12.79817379 44.50626714 -12.1875 40.25 C-11.53588854 36.75194875 -10.7011313 33.31969438 -9.8125 29.875 C-6.48523316 17.7091713 -6.48523316 17.7091713 -5.1875 5.25 C-5.1875 0.94029019 -4.23299974 0.33199998 0 0 Z " fill="#FFFFFF" transform="translate(202.1875,498.75)"/>
<path d="M0 0 C4.62 0 9.24 0 14 0 C14.60237145 8.31272596 13.09462292 15.08931185 10.85327148 23.00463867 C9.38708309 28.25982978 8.53008708 33.18290694 8.2421875 38.64453125 C7.90639317 41.91040193 6.89862247 44.78206093 5.71875 47.83203125 C4.74355257 50.58679958 4.74355257 50.58679958 4 56 C-0.62 56 -5.24 56 -10 56 C-8.15055875 45.61467605 -6.09439446 35.27401773 -3.953125 24.9453125 C-3.77442871 24.07382568 -3.59573242 23.20233887 -3.41162109 22.30444336 C-3.06451255 20.61169702 -2.71353433 18.91973758 -2.35791016 17.22875977 C-1.18818223 11.49709291 -0.50772857 5.82851669 0 0 Z " fill="#FFFFFF" transform="translate(262,484)"/>
<path d="M0 0 C9.9 0 19.8 0 30 0 C30 4.62 30 9.24 30 14 C25.71 14 21.42 14 17 14 C16.34 12.02 15.68 10.04 15 8 C14.67 9.98 14.34 11.96 14 14 C9.38 14 4.76 14 0 14 C0 9.38 0 4.76 0 0 Z " fill="#FFFFFF" transform="translate(395,545)"/>
<path d="M0 0 C1.15628906 0.02707031 2.31257813 0.05414063 3.50390625 0.08203125 C4.47199219 0.11683594 5.44007813 0.15164063 6.4375 0.1875 C7.0975 0.1875 7.7575 0.1875 8.4375 0.1875 C12.4375 0.1875 16.4375 0.1875 20.4375 0.1875 C21.0975 3.8175 21.7575 7.4475 22.4375 11.1875 C19.15230525 12.28256492 16.70086585 12.28710608 13.25 12.25 C11.61998047 12.23646484 11.61998047 12.23646484 9.95703125 12.22265625 C9.12558594 12.21105469 8.29414063 12.19945312 7.4375 12.1875 C6.7775 10.8675 6.1175 9.5475 5.4375 8.1875 C5.1075 9.5075 4.7775 10.8275 4.4375 12.1875 C-0.1825 12.1875 -4.8025 12.1875 -9.5625 12.1875 C-9.92810069 3.7786841 -9.92810069 3.7786841 -8.4609375 1.40625 C-5.63665103 -0.40687218 -3.31592894 -0.10003361 0 0 Z " fill="#FFFFFF" transform="translate(448.5625,482.8125)"/>
<path d="M0 0 C3.96 0 7.92 0 12 0 C12 3.3 12 6.6 12 10 C8.04 10 4.08 10 0 10 C0 6.7 0 3.4 0 0 Z " fill="#FFFFFF" transform="translate(218,484)"/>
</svg>
